<svg id="Layer_1" data-name="Layer 1" xmlns="http://www.w3.org/2000/svg" viewBox="0 0 480.37 480.37"><defs><style>.cls-1{fill:#fff;}</style></defs><title>Artboard 1</title><polygon class="cls-1" points="465.51 156 455.1 132.17 297.98 200.77 419.21 79.54 400.83 61.16 277.43 184.56 344.51 23.45 320.52 13.46 253.18 175.16 253.18 0 227.19 0 227.19 227.19 0 227.19 0 253.18 175.16 253.18 13.46 320.52 23.45 344.51 184.56 277.43 61.16 400.83 79.54 419.21 200.77 297.98 132.17 455.1 156 465.51 227.19 302.44 227.19 480.37 253.18 480.37 253.18 253.18 480.37 253.18 480.37 227.19 302.44 227.19 465.51 156"/></svg>